<?xml version="1.0" standalone="no"?><!DOCTYPE svg PUBLIC "-//W3C//DTD SVG 1.1//EN" "http://www.w3.org/Graphics/SVG/1.1/DTD/svg11.dtd"><svg t="1499073536637" class="icon" style="" viewBox="0 0 1024 1024" version="1.1" xmlns="http://www.w3.org/2000/svg" p-id="1654" xmlns:xlink="http://www.w3.org/1999/xlink" width="24" height="24"><defs><style type="text/css"></style></defs><path d="M65.683978 219.851197h891.794979v584.279187H65.683978z" fill="#D8231D" p-id="1655"></path><path d="M421.152922 330.003969c2.901073 2.422166 5.41022 5.161556 7.990998 7.832386 2.611477 2.708692 5.205559 5.438872 7.931647 8.289803l20.35049-9.784853c-1.370207 3.614317-3.237741 6.9022-4.980431 10.248411-1.737574 3.333932-3.504824 6.655584-5.314029 10.089799 5.304819 5.522784 10.553357 10.983145 16.050557 16.704451-0.791016-0.068562-1.263783-0.071631-1.718131-0.158613-6.469342-1.189082-12.93459-2.396583-19.400862-3.592828-1.861394-0.342808-1.861394-0.336668-2.789533 1.413186-3.004427 5.662977-6.004761 11.328-9.009187 16.991999-0.258896 0.484024-0.547469 0.949628-1.03047 1.780553-0.280386-1.785669-0.51677-3.188622-0.716314-4.598738-0.803295-5.678326-1.594311-11.359722-2.390443-17.038048-0.196475-1.391696-0.199545-1.416256-1.612731-1.678222-6.634094-1.220804-13.271258-2.422166-19.908422-3.632737a2.793626 2.793626 0 0 1-1.01512-0.373507c3.294023-1.870604 6.721075-3.427052 10.102079-5.071505 3.381004-1.6465 6.771217-3.28072 10.282181-4.984525l-2.822279-22.437012z m-69.301365-50.507324c0.118704-0.105401 0.236384-0.211824 0.355087-0.314155 6.862291 2.786463 13.724583 5.568832 20.720927 8.411577a70159.858176 70159.858176 0 0 0 14.84408-17.564027c0 1.086751 0.033769 1.733481-0.00614 2.378163-0.408299 6.282077-0.833995 12.567223-1.236154 18.8493-0.121773 1.883907-0.090051 1.879813 1.612731 2.568499 6.048763 2.440585 12.094456 4.88424 18.140149 7.330966 0.408299 0.164752 0.806365 0.358157 1.528819 0.678452-0.771573 0.254803-1.254573 0.454348-1.755993 0.579191-6.388501 1.556449-12.782118 3.106758-19.173689 4.653996-1.63115 0.394996-1.62808 0.391926-1.740643 2.103918-0.448208 6.842849-0.902556 13.687744-1.356904 20.533662-0.01228 0.202615-0.068562 0.408299-0.170893 1.01819-0.51063-0.787946-0.830925-1.276063-1.142009-1.771343-3.443425-5.472642-6.880711-10.951423-10.326183-16.424065-0.971118-1.541099-0.981351-1.538029-2.821255-1.086751-6.334265 1.553379-12.666484 3.112897-19.00075 4.663207-0.416486 0.099261-0.846274 0.149403-1.639336 0.289595 5.067412-6.024204 9.904581-11.770068 14.862499-17.663288-3.911076-6.430456-7.801686-12.834306-11.694343-19.235087zM316.563866 359.53454l-44.966121 33.146934c-0.36225 0.267083-0.723477 0.535189-1.084705 0.805342-1.326205 0.995677-1.337461 0.99977-0.800225 2.638083 4.098341 12.504802 8.200776 25.007557 12.301164 37.511336l5.731538 17.472953c0.154519 0.471744 0.297782 0.947582 0.437975 1.394766-0.11154 0.077771-0.150426 0.121773-0.198522 0.13303a0.267083 0.267083 0 0 1-0.162705-0.010233 2.416026 2.416026 0 0 1-0.286526-0.176009 26.945699 26.945699 0 0 1-0.688685-0.487093c-15.929808-11.668761-31.857569-23.338544-47.786353-35.008329a3.63683 3.63683 0 0 0-0.285503-0.182148 0.896416 0.896416 0 0 0-0.151449-0.072655c-0.052189-0.019443-0.105401-0.033769-0.384763-0.121773l-49.128931 36.118615-0.328481-0.254803 18.646686-58.322314c-16.372899-11.932774-32.776498-23.818475-49.146327-35.750225 0.039909-0.134053 0.077771-0.271176 0.11768-0.408299h1.950422c18.848277 0 37.6986 0.00614 56.546877-0.00307 2.552126 0 2.180666 0.277316 3.003404-2.185782 5.958712-17.809621 11.914354-35.623335 17.873066-53.436026 0.207731-0.62217 0.443092-1.233084 0.972141-1.861394l18.655895 57.402361c3.359514 0.184195 6.719028 0.059352 10.074449 0.080841 3.374864 0.021489 6.750751 0.00307 10.127662 0.00307h40.416501l0.099261 0.376577c-0.518816 0.396019-1.027399 0.806365-1.555425 1.196245z m89.528036 141.046386c-6.335289 1.544169-12.673647 3.075035-19.012006 4.616134-0.588401 0.14224-1.167592 0.325411-1.830695 0.5137l-1.556449 23.180955c-0.5137-0.731664-0.837064-1.14508-1.11438-1.587147-3.474125-5.519714-6.941086-11.045567-10.415211-16.565281-0.991584-1.576915-1.00284-1.572822-2.804882-1.130754-6.333242 1.554402-12.665461 3.111874-18.998703 4.662183-0.424672 0.105401-0.857531 0.172939-1.703805 0.339738l14.891152-17.712407-11.698436-19.216667 0.230244-0.299829c3.520173 1.221828 6.919597 2.771113 10.383488 4.142344 3.446495 1.362021 6.867408 2.784416 10.462282 4.246721l14.569834-17.235547 0.280386 0.096191c0 0.636496 0.036839 1.278109-0.00614 1.913583-0.408299 6.284123-0.824785 12.568247-1.242294 18.851346-0.01535 0.223081 0 0.453325-0.036839 0.673336-0.155543 0.939395 0.258896 1.427512 1.13587 1.763156 2.62478 1.001817 5.223978 2.074242 7.832386 3.123131 3.651157 1.470491 7.297197 2.946099 10.948353 4.421706 0.358157 0.144286 0.710175 0.303922 1.460258 0.62524-0.815575 0.26913-1.285273 0.460488-1.774413 0.578168z m55.18588-67.953671c-5.015224 3.903913-10.036587 7.80271-15.048741 11.707646-1.466398 1.14201-1.466398 1.150196-0.837065 2.909259 2.157129 6.036483 4.317329 12.07092 6.469342 18.108427 0.184195 0.514723 0.329505 1.043772 0.236384 1.793856l-18.794042-12.998036c-6.024204 4.66423-12.035104 9.320273-18.046005 13.97734a18.726503 18.726503 0 0 0-0.311085-0.226151l6.362918-21.929452c-6.228865-4.296863-12.399401-8.552793-18.573007-12.808723 0.030699-0.12689 0.065492-0.25378 0.09926-0.379647 7.477298-0.393973 14.980179-0.298805 22.591531-0.735757 2.210341-7.204076 4.411473-14.372336 6.612605-21.541619 0.102331 0.00921 0.205685 0.016373 0.308015 0.024559 0.227174 0.556679 0.469698 1.106194 0.672312 1.670036 2.12336 5.987365 4.239558 11.978822 6.365988 17.96721 0.566912 1.600451 0.576121 1.610684 2.266623 1.563612 6.353708-0.176009 12.704346-0.36532 19.061125-0.544399 0.591471-0.016373 1.189082-0.002047 1.783623-0.002046l0.140193 0.328481c-0.454348 0.37146-0.899486 0.754177-1.359974 1.115404z" fill="#FFFA30" p-id="1656"></path></svg>