<?xml version="1.0" encoding="UTF-8"?>
<svg width="36px" height="36px" viewBox="0 0 36 36" version="1.1" xmlns="http://www.w3.org/2000/svg" xmlns:xlink="http://www.w3.org/1999/xlink">
    <!-- Generator: Sketch 52.4 (67378) - http://www.bohemiancoding.com/sketch -->
    <title>Rectangle Copy 2</title>
    <desc>Created with Sketch.</desc>
    <g id="Page-1" stroke="none" stroke-width="1" fill="none" fill-rule="evenodd">
        <g id="详情页" transform="translate(-1275.000000, -330.000000)">
            <rect fill="#FFFFFF" x="0" y="0" width="1920" height="10400"></rect>
            <g id="s" transform="translate(1275.000000, 330.000000)" opacity="0.400000006">
                <rect id="Rectangle-Copy-2" x="0" y="0" width="36" height="36"></rect>
                <path d="M21.5275073,28.2055354 C21.5092266,28.0403675 21.5,27.8735168 21.5,27.7055354 C21.5,25.220254 23.5147186,23.2055354 26,23.2055354 C28.4852814,23.2055354 30.5,25.220254 30.5,27.7055354 C30.5,27.8735168 30.4907734,28.0403675 30.4724927,28.2055354 L32,28.2055354 C32.8284271,28.2055354 33.5,27.5339625 33.5,26.7055354 L33.5,15 C33.5,11.9624339 31.0375661,9.5 28,9.5 L25.5,9.5 L25.5,8 C25.5,7.17157288 24.8284271,6.5 24,6.5 L5,6.5 C4.17157288,6.5 3.5,7.17157288 3.5,8 L3.5,26.7055354 C3.5,27.5339625 4.17157288,28.2055354 5,28.2055354 L5.52750733,28.2055354 C5.50922655,28.0403675 5.5,27.8735168 5.5,27.7055354 C5.5,25.220254 7.51471863,23.2055354 10,23.2055354 C12.4852814,23.2055354 14.5,25.220254 14.5,27.7055354 C14.5,27.8735168 14.4907734,28.0403675 14.4724927,28.2055354 L21.5275073,28.2055354 Z M10,30.2055354 C11.3807119,30.2055354 12.5,29.0862473 12.5,27.7055354 C12.5,26.3248235 11.3807119,25.2055354 10,25.2055354 C8.61928813,25.2055354 7.5,26.3248235 7.5,27.7055354 C7.5,29.0862473 8.61928813,30.2055354 10,30.2055354 Z M26,30.2055354 C27.3807119,30.2055354 28.5,29.0862473 28.5,27.7055354 C28.5,26.3248235 27.3807119,25.2055354 26,25.2055354 C24.6192881,25.2055354 23.5,26.3248235 23.5,27.7055354 C23.5,29.0862473 24.6192881,30.2055354 26,30.2055354 Z" id="Combined-Shape" stroke="#000000"></path>
                <path d="M3.61550122,21.113182 L33.4699954,21.113182" id="Path-5" stroke="#000000"></path>
                <path d="M25.5,9 L25.5,21.113182" id="Path-6" stroke="#000000"></path>
            </g>
        </g>
    </g>
</svg>