<?xml version="1.0" encoding="UTF-8"?>
<svg width="36px" height="36px" viewBox="0 0 36 36" version="1.1" xmlns="http://www.w3.org/2000/svg" xmlns:xlink="http://www.w3.org/1999/xlink">
    <!-- Generator: Sketch 52.4 (67378) - http://www.bohemiancoding.com/sketch -->
    <title>Rectangle Copy 2</title>
    <desc>Created with Sketch.</desc>
    <g id="Page-1" stroke="none" stroke-width="1" fill="none" fill-rule="evenodd">
        <g id="详情页" transform="translate(-1020.000000, -330.000000)">
            <rect fill="#FFFFFF" x="0" y="0" width="1920" height="10400"></rect>
            <g id="w" transform="translate(1020.000000, 330.000000)" opacity="0.400000006">
                <rect id="Rectangle-Copy-2" x="0" y="0" width="36" height="36"></rect>
                <path d="M22.2,19 L21.6499043,19 C21.4944888,19 21.3426679,19.0178671 21.196583,19.0518028 L20.2665615,12.8516595 C20.1931335,12.3621396 19.7726216,12 19.2776252,12 L7.72237484,12 C7.22737842,12 6.80686648,12.3621396 6.73343849,12.8516595 L4.33343849,28.8516595 C4.32607295,28.9007631 4.32237484,28.9503471 4.32237484,29 C4.32237484,29.5522847 4.77009009,30 5.32237484,30 L18.0394995,30 L17.9246612,30.6542146 C17.90462,30.7683858 17.8945425,30.8840832 17.8945425,31 L5.32237484,31 C4.21780534,31 3.32237484,30.1045695 3.32237484,29 C3.32237484,28.9006942 3.32977106,28.8015262 3.34450214,28.7033191 L5.74450214,12.7033191 C5.89135812,11.7242792 6.732382,11 7.72237484,11 L13,11 L13,6 L14,6 L14,11 L19.2776252,11 C20.267618,11 21.1086419,11.7242792 21.2554979,12.7033191 L22.2,19 Z M8,5 L19,5 L19,6 L8,6 L8,5 Z" id="Combined-Shape" fill="#000000" fill-rule="nonzero"></path>
                <path d="M22.6691527,20.5 C21.9442235,20.5 21.3230271,21.0184358 21.1933478,21.7316718 L19.9206206,28.7316718 C19.9045231,28.8202077 19.8964254,28.9100126 19.8964254,29 C19.8964254,29.8284271 20.5679983,30.5 21.3964254,30.5 L29.6035746,30.5 C29.693562,30.5 29.7833668,30.4919023 29.8719027,30.4758049 C30.6869672,30.3276113 31.227573,29.5467364 31.0793794,28.7316718 L29.8066522,21.7316718 C29.6769729,21.0184358 29.0557765,20.5 28.3308473,20.5 L22.6691527,20.5 Z" id="Combined-Shape" stroke="#000000"></path>
                <path d="M23,15 L29,15 L29,16 L23,16 L23,15 Z M25,16 L26,16 L26,20 L25,20 L25,16 Z" id="Combined-Shape" fill="#000000"></path>
            </g>
        </g>
    </g>
</svg>